<svg xmlns="http://www.w3.org/2000/svg" width="20" height="12.500" viewBox="0 0 20 12.500" fill="none">
  <path d="M 6.25 12.5 C 4.517 12.5 3.042 11.892 1.825 10.675 C 0.608 9.458 0 7.983 0 6.25 C 0 4.517 0.608 3.042 1.825 1.825 C 3.042 0.608 4.517 0 6.25 0 L 15.5 0 C 16.75 0 17.813 0.438 18.688 1.313 C 19.563 2.188 20 3.25 20 4.5 C 20 5.75 19.563 6.813 18.688 7.688 C 17.813 8.563 16.75 9 15.5 9 L 6.75 9 C 5.983 9 5.333 8.733 4.8 8.2 C 4.267 7.667 4 7.017 4 6.25 C 4 5.483 4.267 4.833 4.8 4.3 C 5.333 3.767 5.983 3.5 6.75 3.5 L 16 3.5 L 16 5.5 L 6.75 5.5 C 6.533 5.5 6.354 5.571 6.213 5.713 C 6.071 5.854 6 6.033 6 6.25 C 6 6.467 6.071 6.646 6.213 6.787 C 6.354 6.929 6.533 7 6.75 7 L 15.5 7 C 16.2 6.983 16.792 6.738 17.275 6.263 C 17.758 5.787 18 5.2 18 4.5 C 18 3.8 17.758 3.208 17.275 2.725 C 16.792 2.242 16.2 2 15.5 2 L 6.25 2 C 5.067 1.983 4.063 2.392 3.237 3.225 C 2.413 4.058 2 5.067 2 6.25 C 2 7.417 2.413 8.408 3.237 9.225 C 4.063 10.042 5.067 10.467 6.25 10.5 L 16 10.5 L 16 12.5 L 6.25 12.5 Z" fill="currentColor" fill-rule="nonzero"/>
</svg>
