<svg xmlns="http://www.w3.org/2000/svg" width="20.999" height="16.004" viewBox="0 0 20.999 16.004" fill="none">
  <path d="M 17.768 1.33 C 16.438 0.71 14.998 0.26 13.498 0 C 13.472 0 13.447 0.011 13.428 0.03 C 13.248 0.36 13.038 0.79 12.898 1.12 C 11.307 0.88 9.689 0.88 8.098 1.12 C 7.958 0.78 7.748 0.36 7.558 0.03 C 7.548 0.01 7.518 0 7.488 0 C 5.988 0.26 4.558 0.71 3.218 1.33 C 3.208 1.33 3.198 1.34 3.188 1.35 C 0.468 5.42 -0.282 9.38 0.088 13.3 C 0.088 13.32 0.098 13.34 0.118 13.35 C 1.918 14.67 3.648 15.47 5.358 16 C 5.388 16.01 5.418 16 5.428 15.98 C 5.828 15.43 6.188 14.85 6.498 14.24 C 6.518 14.2 6.498 14.16 6.458 14.15 C 5.888 13.93 5.348 13.67 4.818 13.37 C 4.778 13.35 4.778 13.29 4.808 13.26 C 4.918 13.18 5.028 13.09 5.138 13.01 C 5.158 12.99 5.188 12.99 5.208 13 C 8.648 14.57 12.358 14.57 15.758 13 C 15.778 12.99 15.808 12.99 15.828 13.01 C 15.938 13.1 16.048 13.18 16.158 13.27 C 16.198 13.3 16.198 13.36 16.148 13.38 C 15.628 13.69 15.078 13.94 14.508 14.16 C 14.468 14.17 14.458 14.22 14.468 14.25 C 14.788 14.86 15.148 15.44 15.538 15.99 C 15.568 16 15.598 16.01 15.628 16 C 17.348 15.47 19.078 14.67 20.878 13.35 C 20.898 13.34 20.908 13.32 20.908 13.3 C 21.348 8.77 20.178 4.84 17.808 1.35 C 17.798 1.34 17.788 1.33 17.768 1.33 Z M 7.018 10.91 C 5.988 10.91 5.128 9.96 5.128 8.79 C 5.128 7.62 5.968 6.67 7.018 6.67 C 8.078 6.67 8.918 7.63 8.908 8.79 C 8.908 9.96 8.068 10.91 7.018 10.91 Z M 13.988 10.91 C 12.958 10.91 12.098 9.96 12.098 8.79 C 12.098 7.62 12.938 6.67 13.988 6.67 C 15.048 6.67 15.888 7.63 15.878 8.79 C 15.878 9.96 15.048 10.91 13.988 10.91 Z" fill="currentColor" fill-rule="nonzero"/>
</svg>
