<svg xmlns="http://www.w3.org/2000/svg" width="10" height="16" viewBox="0 0 10 16" fill="none">
  <path d="M 4 14 C 4 15.1 3.1 16 2 16 C 0.9 16 0 15.1 0 14 C 0 12.9 0.9 12 2 12 C 3.1 12 4 12.9 4 14 Z M 2 6 C 0.9 6 0 6.9 0 8 C 0 9.1 0.9 10 2 10 C 3.1 10 4 9.1 4 8 C 4 6.9 3.1 6 2 6 Z M 2 0 C 0.9 0 0 0.9 0 2 C 0 3.1 0.9 4 2 4 C 3.1 4 4 3.1 4 2 C 4 0.9 3.1 0 2 0 Z M 8 4 C 9.1 4 10 3.1 10 2 C 10 0.9 9.1 0 8 0 C 6.9 0 6 0.9 6 2 C 6 3.1 6.9 4 8 4 Z M 8 6 C 6.9 6 6 6.9 6 8 C 6 9.1 6.9 10 8 10 C 9.1 10 10 9.1 10 8 C 10 6.9 9.1 6 8 6 Z M 8 12 C 6.9 12 6 12.9 6 14 C 6 15.1 6.9 16 8 16 C 9.1 16 10 15.1 10 14 C 10 12.9 9.1 12 8 12 Z" fill="currentColor" fill-rule="nonzero"/>
</svg>
