<svg xmlns="http://www.w3.org/2000/svg" width="22" height="15.024" viewBox="0 0 22 15.024" fill="none">
  <path d="M 11.475 11.825 L 19.85 3.45 L 18.55 2.15 L 10.175 10.525 L 11.475 11.825 Z M 4.95 14 C 3.283 13.917 2.042 13.567 1.225 12.95 C 0.408 12.333 0 11.442 0 10.275 C 0 9.192 0.446 8.313 1.337 7.638 C 2.229 6.963 3.467 6.558 5.05 6.425 C 5.7 6.375 6.188 6.271 6.513 6.113 C 6.838 5.954 7 5.733 7 5.45 C 7 5.017 6.754 4.692 6.263 4.475 C 5.771 4.258 4.958 4.1 3.825 4 L 4 2 C 5.717 2.133 6.979 2.479 7.787 3.038 C 8.596 3.596 9 4.4 9 5.45 C 9 6.333 8.679 7.025 8.038 7.525 C 7.396 8.025 6.45 8.325 5.2 8.425 C 4.133 8.508 3.333 8.704 2.8 9.012 C 2.267 9.321 2 9.742 2 10.275 C 2 10.858 2.233 11.279 2.7 11.538 C 3.167 11.796 3.95 11.95 5.05 12 L 4.95 14 Z M 11.95 14.175 L 7.825 10.05 L 17.375 0.5 C 17.708 0.167 18.104 0 18.563 0 C 19.021 0 19.417 0.167 19.75 0.5 L 21.5 2.25 C 21.833 2.583 22 2.979 22 3.438 C 22 3.896 21.833 4.292 21.5 4.625 L 11.95 14.175 Z M 7.975 15 C 7.692 15.067 7.442 14.992 7.225 14.775 C 7.008 14.558 6.933 14.308 7 14.025 L 7.825 10.05 L 11.95 14.175 L 7.975 15 Z" fill="currentColor" fill-rule="nonzero"/>
</svg>
