<svg xmlns="http://www.w3.org/2000/svg" width="19" height="19" viewBox="0 0 19 19" fill="none">
  <path d="M 1.555 17.445 L 2.696 17.445 L 14.179 5.962 L 13.038 4.821 L 1.555 16.304 L 1.555 17.445 Z M 17.471 4.847 L 14.153 1.529 L 15.241 0.441 C 15.535 0.147 15.898 0 16.33 0 C 16.762 0 17.125 0.147 17.419 0.441 L 18.559 1.581 C 18.853 1.875 19 2.238 19 2.67 C 19 3.102 18.853 3.465 18.559 3.759 L 17.471 4.847 Z M 16.382 5.936 L 3.318 19 L 0 19 L 0 15.682 L 13.064 2.618 L 16.382 5.936 Z M 13.608 5.392 L 13.038 4.821 L 14.179 5.962 L 13.608 5.392 Z" fill="currentColor" fill-rule="nonzero"/>
</svg>
