<svg xmlns="http://www.w3.org/2000/svg" width="21.875" height="22" viewBox="0 0 21.875 22" fill="none">
  <path d="M 7.725 19.125 C 5.992 18.325 4.583 17.117 3.5 15.5 C 2.417 13.883 1.875 12.058 1.875 10.025 C 1.875 9.592 1.896 9.167 1.938 8.75 C 1.979 8.333 2.05 7.925 2.15 7.525 L 1 8.2 L 0 6.475 L 4.775 3.725 L 7.525 8.475 L 5.775 9.475 L 4.425 7.125 C 4.242 7.575 4.104 8.042 4.013 8.525 C 3.921 9.008 3.875 9.508 3.875 10.025 C 3.875 11.642 4.317 13.113 5.2 14.438 C 6.083 15.762 7.258 16.742 8.725 17.375 L 7.725 19.125 Z M 15.375 7 L 15.375 5 L 18.1 5 C 17.333 4.05 16.408 3.313 15.325 2.788 C 14.242 2.263 13.092 2 11.875 2 C 10.958 2 10.092 2.142 9.275 2.425 C 8.458 2.708 7.708 3.108 7.025 3.625 L 6.025 1.875 C 6.858 1.292 7.767 0.833 8.75 0.5 C 9.733 0.167 10.775 0 11.875 0 C 13.192 0 14.45 0.246 15.65 0.738 C 16.85 1.229 17.925 1.942 18.875 2.875 L 18.875 1.5 L 20.875 1.5 L 20.875 7 L 15.375 7 Z M 14.725 22 L 9.95 19.25 L 12.7 14.5 L 14.425 15.5 L 13 17.95 C 14.967 17.667 16.604 16.775 17.913 15.275 C 19.221 13.775 19.875 12.017 19.875 10 C 19.875 9.817 19.871 9.646 19.863 9.488 C 19.854 9.329 19.833 9.167 19.8 9 L 21.825 9 C 21.842 9.167 21.854 9.329 21.863 9.488 C 21.871 9.646 21.875 9.817 21.875 10 C 21.875 12.25 21.204 14.262 19.863 16.038 C 18.521 17.813 16.775 19.008 14.625 19.625 L 15.725 20.275 L 14.725 22 Z" fill="currentColor" fill-rule="nonzero"/>
</svg>
