<svg xmlns="http://www.w3.org/2000/svg" width="18" height="18" viewBox="0 0 18 18" fill="none">
  <path d="M 15 0 C 15.796 0 16.559 0.316 17.121 0.879 C 17.684 1.441 18 2.204 18 3 L 18 15 C 18 15.796 17.684 16.559 17.121 17.121 C 16.559 17.684 15.796 18 15 18 L 3 18 C 2.204 18 1.441 17.684 0.879 17.121 C 0.316 16.559 0 15.796 0 15 L 0 3 C 0 2.204 0.316 1.441 0.879 0.879 C 1.441 0.316 2.204 0 3 0 L 15 0 Z M 15 2 L 3 2 C 2.735 2 2.48 2.105 2.293 2.293 C 2.105 2.48 2 2.735 2 3 L 2 15 C 2 15.265 2.105 15.52 2.293 15.707 C 2.48 15.895 2.735 16 3 16 L 15 16 C 15.265 16 15.52 15.895 15.707 15.707 C 15.895 15.52 16 15.265 16 15 L 16 3 C 16 2.735 15.895 2.48 15.707 2.293 C 15.52 2.105 15.265 2 15 2 Z M 5 7 C 5.245 7 5.481 7.09 5.664 7.253 C 5.847 7.415 5.964 7.64 5.993 7.883 L 6 8 L 6 13 C 6 13.255 5.902 13.5 5.727 13.685 C 5.552 13.871 5.313 13.982 5.059 13.997 C 4.804 14.012 4.554 13.929 4.358 13.766 C 4.163 13.602 4.037 13.37 4.007 13.117 L 4 13 L 4 8 C 4 7.735 4.105 7.48 4.293 7.293 C 4.48 7.105 4.735 7 5 7 Z M 8 6 C 8.234 6 8.461 6.082 8.641 6.232 C 8.821 6.382 8.942 6.591 8.984 6.821 C 9.185 6.705 9.393 6.6 9.607 6.508 C 10.274 6.223 11.273 6.066 12.175 6.349 C 12.648 6.499 13.123 6.779 13.475 7.256 C 13.79 7.681 13.96 8.198 13.994 8.779 L 14 9 L 14 13 C 14 13.255 13.902 13.5 13.727 13.685 C 13.552 13.871 13.313 13.982 13.059 13.997 C 12.804 14.012 12.554 13.929 12.358 13.766 C 12.163 13.602 12.037 13.37 12.007 13.117 L 12 13 L 12 9 C 12 8.67 11.92 8.516 11.868 8.445 C 11.793 8.352 11.69 8.286 11.575 8.257 C 11.227 8.147 10.726 8.205 10.393 8.347 C 9.893 8.561 9.435 8.897 9.123 9.208 L 9 9.34 L 9 13 C 9 13.255 8.902 13.5 8.727 13.685 C 8.552 13.871 8.313 13.982 8.059 13.997 C 7.804 14.012 7.554 13.929 7.358 13.766 C 7.163 13.602 7.037 13.37 7.007 13.117 L 7 13 L 7 7 C 7 6.735 7.105 6.48 7.293 6.293 C 7.48 6.105 7.735 6 8 6 Z M 5 4 C 5.265 4 5.52 4.105 5.707 4.293 C 5.895 4.48 6 4.735 6 5 C 6 5.265 5.895 5.52 5.707 5.707 C 5.52 5.895 5.265 6 5 6 C 4.735 6 4.48 5.895 4.293 5.707 C 4.105 5.52 4 5.265 4 5 C 4 4.735 4.105 4.48 4.293 4.293 C 4.48 4.105 4.735 4 5 4 Z" fill="currentColor" fill-rule="nonzero"/>
</svg>
