<svg xmlns="http://www.w3.org/2000/svg" width="20" height="20" viewBox="0 0 20 20" fill="none">
  <path d="M 0 15.556 L 0 17.778 L 6.667 17.778 L 6.667 15.556 L 0 15.556 Z M 0 2.222 L 0 4.444 L 11.111 4.444 L 11.111 2.222 L 0 2.222 Z M 11.111 20 L 11.111 17.778 L 20 17.778 L 20 15.556 L 11.111 15.556 L 11.111 13.333 L 8.889 13.333 L 8.889 20 L 11.111 20 Z M 4.444 6.667 L 4.444 8.889 L 0 8.889 L 0 11.111 L 4.444 11.111 L 4.444 13.333 L 6.667 13.333 L 6.667 6.667 L 4.444 6.667 Z M 20 11.111 L 20 8.889 L 8.889 8.889 L 8.889 11.111 L 20 11.111 Z M 13.333 6.667 L 15.556 6.667 L 15.556 4.444 L 20 4.444 L 20 2.222 L 15.556 2.222 L 15.556 0 L 13.333 0 L 13.333 6.667 Z" fill="currentColor" fill-rule="nonzero"/>
</svg>
