<svg xmlns="http://www.w3.org/2000/svg" width="20.002" height="19.000" viewBox="0 0 20.002 19.000" fill="none">
  <path d="M 9.709 7.293 C 9.318 6.902 8.685 6.902 8.295 7.293 C 7.904 7.683 7.904 8.316 8.295 8.707 L 9.709 7.293 Z M 11.295 11.707 C 11.685 12.097 12.318 12.097 12.709 11.707 C 13.099 11.316 13.099 10.683 12.709 10.293 L 11.295 11.707 Z M 4.502 19 L 4.502 18 L 4.502 19 Z M 1.002 15.5 L 0.002 15.5 L 0.002 15.5 L 1.002 15.5 Z M 0.294 17.292 L 1 18 C 1.008 17.992 1.016 17.984 1.024 17.975 L 0.294 17.292 Z M 1.002 19 L 1.002 18 L 1 18 L 1.002 19 Z M 7.264 14.324 C 6.873 14.714 6.873 15.347 7.264 15.738 C 7.654 16.128 8.287 16.128 8.678 15.738 L 7.264 14.324 Z M 19.38 3.624 L 20.087 4.331 L 20.087 4.331 L 19.38 3.624 Z M 17.879 0 L 17.879 -1 L 17.879 0 Z M 16.378 0.622 L 15.671 -0.085 L 15.671 -0.085 L 16.378 0.622 Z M 4.262 11.324 C 3.871 11.714 3.871 12.347 4.262 12.738 C 4.652 13.128 5.285 13.128 5.676 12.738 L 4.262 11.324 Z M 9.002 8 L 8.295 8.707 L 11.295 11.707 L 12.002 11 L 12.709 10.293 L 9.709 7.293 L 9.002 8 Z M 4.502 19 L 4.502 20 C 5.392 20 6.262 19.736 7.002 19.241 L 6.446 18.41 L 5.891 17.578 C 5.48 17.853 4.996 18 4.502 18 L 4.502 19 Z M 6.446 18.41 L 7.002 19.241 C 7.742 18.747 8.319 18.044 8.659 17.222 L 7.735 16.839 L 6.811 16.456 C 6.622 16.913 6.302 17.304 5.891 17.578 L 6.446 18.41 Z M 7.735 16.839 L 8.659 17.222 C 9 16.4 9.089 15.495 8.915 14.622 L 7.935 14.817 L 6.954 15.012 C 7.05 15.497 7.001 16 6.811 16.456 L 7.735 16.839 Z M 7.935 14.817 L 8.915 14.622 C 8.742 13.749 8.313 12.947 7.684 12.318 L 6.977 13.025 L 6.27 13.732 C 6.619 14.082 6.857 14.527 6.954 15.012 L 7.935 14.817 Z M 6.977 13.025 L 7.684 12.318 C 7.054 11.688 6.253 11.26 5.38 11.086 L 5.185 12.067 L 4.99 13.048 C 5.474 13.144 5.92 13.382 6.27 13.732 L 6.977 13.025 Z M 5.185 12.067 L 5.38 11.086 C 4.507 10.913 3.602 11.002 2.78 11.342 L 3.162 12.266 L 3.545 13.19 C 4.002 13.001 4.505 12.951 4.99 13.048 L 5.185 12.067 Z M 3.162 12.266 L 2.78 11.342 C 1.957 11.683 1.255 12.26 0.76 13 L 1.592 13.555 L 2.423 14.111 C 2.698 13.7 3.088 13.379 3.545 13.19 L 3.162 12.266 Z M 1.592 13.555 L 0.76 13 C 0.266 13.74 0.002 14.61 0.002 15.5 L 1.002 15.5 L 2.002 15.5 C 2.002 15.005 2.148 14.522 2.423 14.111 L 1.592 13.555 Z M 1.002 15.5 L 0.002 15.5 C 0.002 15.912 -0.155 16.308 -0.436 16.608 L 0.294 17.292 L 1.024 17.975 C 1.652 17.304 2.002 16.419 2.002 15.499 L 1.002 15.5 Z M 0.294 17.292 L -0.412 16.584 C -0.693 16.863 -0.884 17.22 -0.961 17.609 L 0.019 17.804 L 1 18 L 1 18 L 0.294 17.292 Z M 0.019 17.804 L -0.961 17.609 C -1.039 17.997 -0.999 18.4 -0.848 18.766 L 0.076 18.383 L 1 18 L 1 18 L 0.019 17.804 Z M 0.076 18.383 L -0.848 18.766 C -0.696 19.131 -0.439 19.444 -0.109 19.664 L 0.445 18.832 L 1 18 L 1 18 L 0.076 18.383 Z M 0.445 18.832 L -0.109 19.664 C 0.22 19.884 0.607 20 1.004 20 L 1.002 19 L 1 18 L 1 18 L 0.445 18.832 Z M 1.002 19 L 1.002 20 L 4.502 20 L 4.502 19 L 4.502 18 L 1.002 18 L 1.002 19 Z M 7.971 15.031 L 8.678 15.738 L 20.087 4.331 L 19.38 3.624 L 18.673 2.917 L 7.264 14.324 L 7.971 15.031 Z M 19.38 3.624 L 20.087 4.331 C 20.673 3.745 21.002 2.951 21.002 2.123 L 20.002 2.123 L 19.002 2.123 C 19.002 2.421 18.883 2.706 18.673 2.917 L 19.38 3.624 Z M 20.002 2.123 L 21.002 2.123 C 21.002 1.295 20.673 0.5 20.087 -0.085 L 19.38 0.622 L 18.673 1.329 C 18.883 1.539 19.002 1.825 19.002 2.123 L 20.002 2.123 Z M 19.38 0.622 L 20.087 -0.085 C 19.501 -0.671 18.707 -1 17.879 -1 L 17.879 0 L 17.879 1 C 18.177 1 18.462 1.118 18.673 1.329 L 19.38 0.622 Z M 17.879 0 L 17.879 -1 C 17.051 -1 16.256 -0.671 15.671 -0.085 L 16.378 0.622 L 17.085 1.329 C 17.295 1.118 17.581 1 17.879 1 L 17.879 0 Z M 16.378 0.622 L 15.671 -0.085 L 4.262 11.324 L 4.969 12.031 L 5.676 12.738 L 17.085 1.329 L 16.378 0.622 Z" fill="currentColor" fill-rule="nonzero"/>
</svg>
