<svg xmlns="http://www.w3.org/2000/svg" width="22" height="16" viewBox="0 0 22 16" fill="none">
  <path d="M 2 16 C 1.45 16 0.979 15.804 0.588 15.413 C 0.196 15.021 0 14.55 0 14 L 0 2 C 0 1.45 0.196 0.979 0.588 0.588 C 0.979 0.196 1.45 0 2 0 L 4 0 C 4.55 0 5.021 0.196 5.412 0.588 C 5.804 0.979 6 1.45 6 2 L 6 14 C 6 14.55 5.804 15.021 5.412 15.413 C 5.021 15.804 4.55 16 4 16 L 2 16 Z M 2 14.025 L 4 14.025 L 4 1.975 L 2 1.975 L 2 14.025 Z M 10 16 C 9.45 16 8.979 15.804 8.588 15.413 C 8.196 15.021 8 14.55 8 14 L 8 2 C 8 1.45 8.196 0.979 8.588 0.588 C 8.979 0.196 9.45 0 10 0 L 20 0 C 20.55 0 21.021 0.196 21.413 0.588 C 21.804 0.979 22 1.45 22 2 L 22 14 C 22 14.55 21.804 15.021 21.413 15.413 C 21.021 15.804 20.55 16 20 16 L 10 16 Z M 10 14.025 L 20 14.025 L 20 1.975 L 10 1.975 L 10 14.025 Z" fill="currentColor" fill-rule="nonzero"/>
</svg>
