<svg xmlns="http://www.w3.org/2000/svg" width="18" height="18" viewBox="0 0 18 18" fill="none">
  <path d="M 12 0 L 2 0 C 0.9 0 0.01 0.9 0.01 2 L 0 16 C 0 17.1 0.89 18 1.99 18 L 16 18 C 17.1 18 18 17.1 18 16 L 18 6 L 12 0 Z M 2 16 L 2 2 L 11 2 L 11 7 L 16 7 L 16 16 L 2 16 Z M 6 5 C 6 5.55 5.55 6 5 6 C 4.45 6 4 5.55 4 5 C 4 4.45 4.45 4 5 4 C 5.55 4 6 4.45 6 5 Z M 6 9 C 6 9.55 5.55 10 5 10 C 4.45 10 4 9.55 4 9 C 4 8.45 4.45 8 5 8 C 5.55 8 6 8.45 6 9 Z M 6 13 C 6 13.55 5.55 14 5 14 C 4.45 14 4 13.55 4 13 C 4 12.45 4.45 12 5 12 C 5.55 12 6 12.45 6 13 Z" fill="currentColor" fill-rule="nonzero"/>
</svg>
