<svg xmlns="http://www.w3.org/2000/svg" width="22.503" height="22.503" viewBox="0 0 22.503 22.503" fill="none">
  <path d="M 17.534 11.373 L 12.858 9.649 L 11.13 4.969 C 10.998 4.61 10.759 4.301 10.446 4.083 C 10.132 3.864 9.76 3.747 9.378 3.747 C 8.996 3.747 8.623 3.864 8.31 4.083 C 7.996 4.301 7.758 4.61 7.626 4.969 L 5.901 9.649 L 1.221 11.373 C 0.863 11.505 0.554 11.744 0.335 12.057 C 0.117 12.37 0 12.743 0 13.125 C 0 13.507 0.117 13.88 0.335 14.193 C 0.554 14.506 0.863 14.745 1.221 14.877 L 5.898 16.601 L 7.626 21.281 C 7.758 21.64 7.996 21.949 8.31 22.167 C 8.623 22.386 8.996 22.503 9.378 22.503 C 9.76 22.503 10.132 22.386 10.446 22.167 C 10.759 21.949 10.998 21.64 11.13 21.281 L 12.854 16.605 L 17.534 14.877 C 17.892 14.745 18.201 14.506 18.42 14.193 C 18.638 13.88 18.755 13.507 18.755 13.125 C 18.755 12.743 18.638 12.37 18.42 12.057 C 18.201 11.744 17.892 11.505 17.534 11.373 Z M 11.592 14.669 C 11.439 14.725 11.301 14.814 11.186 14.929 C 11.071 15.044 10.982 15.183 10.926 15.336 L 9.378 19.526 L 7.834 15.336 C 7.777 15.183 7.689 15.044 7.574 14.929 C 7.458 14.814 7.32 14.725 7.167 14.669 L 2.976 13.125 L 7.167 11.581 C 7.32 11.525 7.458 11.436 7.574 11.321 C 7.689 11.206 7.777 11.067 7.834 10.914 L 9.378 6.724 L 10.922 10.914 C 10.978 11.067 11.067 11.206 11.182 11.321 C 11.297 11.436 11.436 11.525 11.588 11.581 L 15.779 13.125 L 11.592 14.669 Z M 12.003 3.375 C 12.003 3.077 12.121 2.79 12.332 2.58 C 12.543 2.369 12.829 2.25 13.128 2.25 L 14.253 2.25 L 14.253 1.125 C 14.253 0.827 14.371 0.54 14.582 0.33 C 14.793 0.119 15.079 0 15.378 0 C 15.676 0 15.962 0.119 16.173 0.33 C 16.384 0.54 16.503 0.827 16.503 1.125 L 16.503 2.25 L 17.628 2.25 C 17.926 2.25 18.212 2.369 18.423 2.58 C 18.634 2.79 18.753 3.077 18.753 3.375 C 18.753 3.673 18.634 3.96 18.423 4.17 C 18.212 4.381 17.926 4.5 17.628 4.5 L 16.503 4.5 L 16.503 5.625 C 16.503 5.923 16.384 6.21 16.173 6.42 C 15.962 6.631 15.676 6.75 15.378 6.75 C 15.079 6.75 14.793 6.631 14.582 6.42 C 14.371 6.21 14.253 5.923 14.253 5.625 L 14.253 4.5 L 13.128 4.5 C 12.829 4.5 12.543 4.381 12.332 4.17 C 12.121 3.96 12.003 3.673 12.003 3.375 Z M 22.503 7.875 C 22.503 8.173 22.384 8.46 22.173 8.67 C 21.962 8.881 21.676 9 21.378 9 L 21.003 9 L 21.003 9.375 C 21.003 9.673 20.884 9.96 20.673 10.17 C 20.462 10.381 20.176 10.5 19.878 10.5 C 19.579 10.5 19.293 10.381 19.082 10.17 C 18.871 9.96 18.753 9.673 18.753 9.375 L 18.753 9 L 18.378 9 C 18.079 9 17.793 8.881 17.582 8.67 C 17.371 8.46 17.253 8.173 17.253 7.875 C 17.253 7.577 17.371 7.29 17.582 7.08 C 17.793 6.869 18.079 6.75 18.378 6.75 L 18.753 6.75 L 18.753 6.375 C 18.753 6.077 18.871 5.79 19.082 5.58 C 19.293 5.369 19.579 5.25 19.878 5.25 C 20.176 5.25 20.462 5.369 20.673 5.58 C 20.884 5.79 21.003 6.077 21.003 6.375 L 21.003 6.75 L 21.378 6.75 C 21.676 6.75 21.962 6.869 22.173 7.08 C 22.384 7.29 22.503 7.577 22.503 7.875 Z" fill="currentColor" fill-rule="nonzero"/>
</svg>
