<svg xmlns="http://www.w3.org/2000/svg" width="21.754" height="21.754" viewBox="0 0 21.754 21.754" fill="none">
  <path d="M 17.027 11.349 L 12.191 9.563 L 10.41 4.723 C 10.305 4.437 10.114 4.189 9.863 4.015 C 9.613 3.84 9.315 3.746 9.009 3.746 C 8.704 3.746 8.406 3.84 8.156 4.015 C 7.905 4.189 7.714 4.437 7.609 4.723 L 5.816 9.563 L 0.977 11.344 C 0.69 11.449 0.443 11.64 0.268 11.891 C 0.094 12.141 0 12.439 0 12.744 C 0 13.05 0.094 13.348 0.268 13.598 C 0.443 13.849 0.69 14.04 0.977 14.145 L 5.816 15.938 L 7.598 20.777 C 7.703 21.063 7.894 21.311 8.144 21.485 C 8.395 21.66 8.693 21.754 8.998 21.754 C 9.304 21.754 9.602 21.66 9.852 21.485 C 10.102 21.311 10.293 21.063 10.399 20.777 L 12.191 15.938 L 17.031 14.156 C 17.317 14.051 17.565 13.86 17.739 13.609 C 17.914 13.359 18.008 13.061 18.008 12.756 C 18.008 12.45 17.914 12.152 17.739 11.902 C 17.565 11.651 17.317 11.46 17.031 11.355 L 17.027 11.349 Z M 11.348 14.646 C 11.246 14.683 11.153 14.742 11.077 14.819 C 11 14.896 10.941 14.988 10.903 15.09 L 9.004 20.236 L 7.108 15.094 C 7.071 14.991 7.011 14.897 6.934 14.82 C 6.856 14.743 6.763 14.683 6.66 14.646 L 1.518 12.75 L 6.66 10.854 C 6.763 10.817 6.856 10.757 6.934 10.68 C 7.011 10.603 7.071 10.509 7.108 10.406 L 9.004 5.264 L 10.899 10.406 C 10.937 10.508 10.996 10.601 11.073 10.677 C 11.15 10.754 11.242 10.813 11.344 10.851 L 16.49 12.75 L 11.348 14.646 Z M 12.004 3 C 12.004 2.801 12.083 2.61 12.223 2.47 C 12.364 2.329 12.555 2.25 12.754 2.25 L 14.254 2.25 L 14.254 0.75 C 14.254 0.551 14.333 0.36 14.473 0.22 C 14.614 0.079 14.805 0 15.004 0 C 15.203 0 15.393 0.079 15.534 0.22 C 15.675 0.36 15.754 0.551 15.754 0.75 L 15.754 2.25 L 17.254 2.25 C 17.453 2.25 17.643 2.329 17.784 2.47 C 17.925 2.61 18.004 2.801 18.004 3 C 18.004 3.199 17.925 3.39 17.784 3.53 C 17.643 3.671 17.453 3.75 17.254 3.75 L 15.754 3.75 L 15.754 5.25 C 15.754 5.449 15.675 5.64 15.534 5.78 C 15.393 5.921 15.203 6 15.004 6 C 14.805 6 14.614 5.921 14.473 5.78 C 14.333 5.64 14.254 5.449 14.254 5.25 L 14.254 3.75 L 12.754 3.75 C 12.555 3.75 12.364 3.671 12.223 3.53 C 12.083 3.39 12.004 3.199 12.004 3 Z M 21.754 7.5 C 21.754 7.699 21.675 7.89 21.534 8.03 C 21.393 8.171 21.203 8.25 21.004 8.25 L 20.254 8.25 L 20.254 9 C 20.254 9.199 20.175 9.39 20.034 9.53 C 19.893 9.671 19.703 9.75 19.504 9.75 C 19.305 9.75 19.114 9.671 18.973 9.53 C 18.833 9.39 18.754 9.199 18.754 9 L 18.754 8.25 L 18.004 8.25 C 17.805 8.25 17.614 8.171 17.473 8.03 C 17.333 7.89 17.254 7.699 17.254 7.5 C 17.254 7.301 17.333 7.11 17.473 6.97 C 17.614 6.829 17.805 6.75 18.004 6.75 L 18.754 6.75 L 18.754 6 C 18.754 5.801 18.833 5.61 18.973 5.47 C 19.114 5.329 19.305 5.25 19.504 5.25 C 19.703 5.25 19.893 5.329 20.034 5.47 C 20.175 5.61 20.254 5.801 20.254 6 L 20.254 6.75 L 21.004 6.75 C 21.203 6.75 21.393 6.829 21.534 6.97 C 21.675 7.11 21.754 7.301 21.754 7.5 Z" fill="currentColor" fill-rule="nonzero"/>
</svg>
